<svg id="Layer_1" enable-background="new 0 0 512 512" height="512" viewBox="0 0 512 512" width="512" xmlns="http://www.w3.org/2000/svg"><g id="Layer_2_00000021077308864167575250000006697642150273620147_"><g id="croos"><path d="m325.6 256 172-172c19.5-19 19.8-50.1.9-69.6-19-19.5-50.1-19.8-69.6-.9-.3.3-.6.6-.8.8l-172 172-172.1-171.9c-19.2-19.2-50.4-19.2-69.6 0s-19.2 50.4 0 69.6l172 172-172 172c-19.4 19-19.8 50.1-.8 69.6s50.1 19.8 69.6.8l.8-.8 172-172 172 172c19.2 19.2 50.4 19.2 69.6 0s19.2-50.4 0-69.6zm165 234.5c-15.3 15.3-40.1 15.3-55.4 0l-172-172-7.1-7.1-7.1 7.1-172 172c-15.3 15.3-40.1 15.3-55.4 0s-15.3-40.1 0-55.4l172-172 7.1-7.1-7.1-7.1-172.1-171.9c-15.3-15.3-15.3-40.1 0-55.5s40.1-15.3 55.5 0l172 172 7.1 7.1 7.1-7.1 172-172c15.3-15.3 40.1-15.3 55.4 0s15.3 40.1 0 55.4l-172 172-7.1 7.1 7.1 7.1 172 172c15.2 15.3 15.2 40.1 0 55.4z"/></g></g></svg>