<svg id="Layer_2_00000073723680861101133730000013204437692057735049_" enable-background="new 0 0 512 512" height="512" viewBox="0 0 512 512" width="512" xmlns="http://www.w3.org/2000/svg"><g id="Icon"><path id="_51" d="m406 341h-300c-19.3 0-35 15.7-35 35s15.7 35 35 35h300c19.3 0 35-15.7 35-35s-15.7-35-35-35zm25 35c0 13.8-11.2 25-25 25h-300c-13.8 0-25-11.2-25-25 0-13.8 11.2-25 25-25h300c13.8 0 25 11.2 25 25zm-25-275h-300c-19.3 0-35 15.7-35 35s15.7 35 35 35h300c19.3 0 35-15.7 35-35s-15.7-35-35-35zm25 35c0 13.8-11.2 25-25 25h-300c-13.8 0-25-11.2-25-25 0-13.8 11.2-25 25-25h300c13.8 0 25 11.2 25 25zm-25 85h-300c-19.3 0-35 15.7-35 35s15.7 35 35 35h300c19.3 0 35-15.7 35-35s-15.7-35-35-35zm25 35c0 13.8-11.2 25-25 25h-300c-13.8 0-25-11.2-25-25 0-13.8 11.2-25 25-25h300c13.8 0 25 11.2 25 25z"/></g></svg>